<svg xmlns="http://www.w3.org/2000/svg" viewBox="0 0 1967.05 938.85"><path d="M198.67,280.08s-48.34,2.34-62.67,2.67-36.33.34-39,0-47-3.67-50.33-3.33-18.67-.67-19.34,9S44,300.09,50,300.75s28.33,1.34,31.67,6,9.33-1.67,10.66,22.33.34,293,.34,293-.08,20.95-25.34,26c-18.33,3.67-21.77,1.59-31.66,3.34-5.67,1-6.67,6-6.34,9S30,669.75,42,670.08s76.33-3.33,90.33-3.33,154,4,160.67,4,17.33,3,21.67-4.67,11-34.66,10.66-47.33,1.34-31.67.34-33.67a5.8,5.8,0,0,0-9-1.33c-4,3.33-17.48,25.14-21,28C285,620.42,268,642.08,231,643.42c-15.54.56-68.87,9.54-80-2.34a16.7,16.7,0,0,1-3-9V325.75s3-25,20.33-24.66,36.34-1,38.34-4,4-10.67,2.66-13S204.19,279.77,198.67,280.08Z" transform="translate(-27.32 -27.42)" style="fill:#1d1d1b"/><path d="M564,282.75l-1.24,0L485,280.08a9.49,9.49,0,0,0-5.83,7.17c-1.17,5.67.5,9,2.33,10.17s22.5,2.83,27,2.66,21.67-1,25,7.5,5.33,12.67,5.33,27.34-2,227.83-2,227.83,2.67,53.76,23.67,79.59c11.89,14.62,38.5,33.25,78.17,35.25s59,.83,79.66-.5,58.59-8.25,79.67-22.75c15.19-10.45,32.07-27.73,41.62-56.25,0,0,8.13-33.75,8.63-61.25s.75-210.25.75-210.25-.5-23.5,20-25,26.25-2.75,26.25-2.75,11-1.5,10.5-10.5-6-8.75-8.5-8.75-33.25,1-36.75,1.25-17,1.5-23,1.5-42.5-2.5-44.75-2.75-16.25-.5-19.25,2.5-4.75,11-.75,14.25,19,4.25,22.5,5,14.75,2.75,19,7.25,8.25,6,8.25,20V531.84s-3.75,37.75-6.25,49.75-10,28-13.25,32.5-20.75,22-26.5,25.25-29.25,18.25-70.75,18-64.75-7.75-77-16.25-28.25-30-32.5-49.5-5-23.5-4.75-30,.25-236.5.25-236.5,0-5.5,4.5-12.75a24.27,24.27,0,0,1,20.75-12c13-.25,29,1.25,31.25-4.5s2-11.5-3.5-13.5-16.25-3.5-33.5-2C611.25,280.34,569.75,283.66,564,282.75Z" transform="translate(-27.32 -27.42)" style="fill:#1d1d1b"/><path d="M1106.33,271.75s-8-17.33-17.33,2-31.33,92.67-31.33,92.67-6,11.34,2,12,14-7.33,18-12,39.33-44,54-46.67,32-3.33,44-4,25.33-1.33,34,6.67,5.33,16,5.33,26.67v266s0,20.66-10.67,27.33-28,9.33-38,11.33-22,2-22,7.34.67,9.33,10,9.33,70.67-2.67,73.34-2.67,29.33-1.33,42,0,42.66,3.34,50.66,3.34,18.67-2,19.34-8.67-14.92-10.33-33.92-12.58-30.75-7.5-34.25-18.75a63.22,63.22,0,0,1-2.5-22l.25-194.75.5-82.25s1.46-16.25,15.25-16.25c0,0,79.73-.5,96.5,9,13.25,7.5,11.75,15.25,15.75,28.5s6.5,21.25,11.25,21.5,9.25-6.5,10-11.5,3.25-10.5,3.25-57.25-7.5-40-8.75-40.25-3.75-.25-6.5,5-2,19.5-21,21.25-49.5,2-49.5,2l-96.5.25-66.25-1.5s-48.75-1.25-54.5-5S1109.42,282.42,1106.33,271.75Z" transform="translate(-27.32 -27.42)" style="fill:#1d1d1b"/><path d="M1868,98.21l-74.67-.12.34,172.66s203.66,4.34,200.66,202.34-184.83,207-211.33,207-204.58-12-203.33-204.34c1.33-206,198.33-204,198.33-204l-.33-174-74.44.17.1-70.5,164.67.33Zm-146.5-52v35l130,.17L1851.17,46ZM1785,289.59s-144-6-143,187,145,185,145,185,145.32,6,142.5-196C1927,286.59,1785,289.59,1785,289.59Z" transform="translate(-27.32 -27.42)" style="fill:#1d1d1b"/><ellipse cx="1758.18" cy="351.42" rx="66" ry="66.75" style="fill:#f6d910"/><path d="M199.74,841.47H217.5V952.92h43.81v11.89H199.74Z" transform="translate(-27.32 -27.42)" style="fill:#1d1d1b"/><path d="M348.7,906.25h-39v46.3H354v12.26H292V841.47h59.26v12.26h-41.5v40.63h39Z" transform="translate(-27.32 -27.42)" style="fill:#1d1d1b"/><path d="M404,841.47v82.71c0,22.15,9.23,29.65,21.22,29.65,13.14,0,21.44-8.05,21.44-29.65V841.47h17.75V922c0,32-16.6,44.28-39.65,44.28-23.29,0-38.51-12.07-38.51-42.63V841.47Z" transform="translate(-27.32 -27.42)" style="fill:#1d1d1b"/><path d="M572.58,962.61c-4.84,2-12.45,3.3-22.13,3.3-30.44,0-52.11-19.4-52.11-61.31,0-48.67,30.43-64.23,54.87-64.23,9.46,0,16.14,1.46,19.37,3.11l-3.92,11.9A41.52,41.52,0,0,0,553,852.82c-16.6,0-36,12.81-36,50.5s17.53,50.14,36.43,50.14a47.17,47.17,0,0,0,16.38-2.74Z" transform="translate(-27.32 -27.42)" style="fill:#1d1d1b"/><path d="M621.46,841.47v52.89H665V841.47H682.8V964.81H665V907.17H621.46v57.64H603.71V841.47Z" transform="translate(-27.32 -27.42)" style="fill:#1d1d1b"/><path d="M741.59,854.1H713.23V841.47h74.48V854.1H759.35V964.81H741.59Z" transform="translate(-27.32 -27.42)" style="fill:#1d1d1b"/><path d="M874.64,906.25h-39v46.3h44.27v12.26h-62V841.47h59.26v12.26h-41.5v40.63h39Z" transform="translate(-27.32 -27.42)" style="fill:#1d1d1b"/><path d="M912.45,964.81V841.47h16.83l28.59,57.83c6.46,13.17,14.53,29.64,19.83,43h.46c-1.38-19.4-2.07-35.32-2.07-56.73v-44.1H992V964.81H975.17l-29.52-59.29a385.5,385.5,0,0,1-18.44-41.91h-.46c1.38,16.47,1.84,32.21,1.84,58.56v42.64Z" transform="translate(-27.32 -27.42)" style="fill:#1d1d1b"/><path d="M1032.58,843.3a128.42,128.42,0,0,1,25.83-2.38c14.29,0,26.28,2.75,34.35,9.15,7.61,5.86,11.53,14.82,11.53,25.44,0,11.34-3.46,19-9.45,25.25-8.54,9.15-22.83,13.73-36.67,13.73-3,0-5.3,0-7.84-.19v50.51h-17.75Zm17.75,59.11a36.94,36.94,0,0,0,6.92.55c17.53,0,29.29-9.15,29.29-26.54,0-12.63-6.69-24-26.29-24a46.16,46.16,0,0,0-9.92.91Z" transform="translate(-27.32 -27.42)" style="fill:#1d1d1b"/><path d="M1143,927.84l-10.38,37h-17.06l35.51-123.34h19.6l34.58,123.34h-17.52l-10.38-37Zm32-11.34L1167,885.21c-2.31-8.79-4.38-19-6.23-28.19h-.92c-1.84,9.34-4.15,20-6.23,28.19l-8.07,31.29Z" transform="translate(-27.32 -27.42)" style="fill:#1d1d1b"/><path d="M1237.56,843.3a126.18,126.18,0,0,1,25.6-2.38c15.45,0,27,2.56,35,8.78,7.6,6.23,10.83,14.46,10.83,24.16,0,15.74-9.22,26-24.9,31.66v.36c11.53,2.75,17.52,11.53,21,27.64,3.46,17,6.69,27.45,8.76,31.29h-18c-2.31-3.66-5.3-15.37-8.3-30.56-3.46-16.84-10.15-23.24-25.36-23.24h-6.92v53.8h-17.76Zm17.76,56.91h7.38c17.06,0,28.36-9.88,28.36-24.7,0-14.28-7.38-23.06-26.52-23.24a44.32,44.32,0,0,0-9.22.73Z" transform="translate(-27.32 -27.42)" style="fill:#1d1d1b"/><path d="M1364.84,927.84l-10.37,37H1337.4l35.51-123.34h19.6l34.59,123.34h-17.53l-10.37-37Zm32.05-11.34-8.07-31.29c-2.3-8.79-4.38-19-6.22-28.19h-.93c-1.84,9.34-4.15,20-6.22,28.19l-8.07,31.29Z" transform="translate(-27.32 -27.42)" style="fill:#1d1d1b"/><path d="M1459.38,843.3a104.82,104.82,0,0,1,24-2.38c16.37,0,27.9,3.29,36.43,9.33,12,8.24,21,24.16,21,50,0,28.18-8.76,43.55-18.67,52-10.15,9.15-24.9,13.36-42.89,13.36a126.51,126.51,0,0,1-19.83-1.28Zm17.75,110a46.58,46.58,0,0,0,6.69.37c19.6,0,38.51-11.17,38.51-53.07,0-31.11-12-48.13-36.89-48.13a39.5,39.5,0,0,0-8.31.73Z" transform="translate(-27.32 -27.42)" style="fill:#1d1d1b"/><path d="M1592.65,841.47V964.81H1574.9V841.47Z" transform="translate(-27.32 -27.42)" style="fill:#1d1d1b"/><path d="M1690.42,906.25h-39v46.3h44.27v12.26h-62V841.47H1693v12.26h-41.5v40.63h39Z" transform="translate(-27.32 -27.42)" style="fill:#1d1d1b"/><path d="M1724.77,948.52c5.3,2.75,14.53,4.94,22.37,4.94,16.14,0,25.82-8.41,25.82-20.86,0-11.34-8.3-18.3-20.52-25.62-12.22-6.77-29.28-18.3-29.28-34.22,0-18.66,16.37-32.39,41-32.39,9.68,0,18.22,2.38,21.91,4.58L1781.72,857c-3.92-2.19-10.37-4.2-18.44-4.2-15.22,0-22.37,9.14-22.37,17.56,0,12.26,8.07,17,22.83,25.44,18.68,10.43,27,21.78,27,35.5,0,21.23-18.91,34.59-43.58,34.59-10.61,0-21.91-2.75-26.29-5.31Z" transform="translate(-27.32 -27.42)" style="fill:#1d1d1b"/></svg>